<?xml version="1.0" encoding="utf-8"?>
<svg viewBox="0 0 400 400" width="100%" height="100%" xmlns="http://www.w3.org/2000/svg">
  <!-- Solid background covering the entire square to avoid white margins on mobile launchers -->
  <rect 
    x="0" 
    y="0" 
    width="400" 
    height="400" 
    fill="#FFEEDC" 
  />
  <g>
    <!-- BENTO CELLS (L C M L) -->
    <g transform="translate(10, 10)">
      <rect x="65" y="65" width="120" height="120" rx="24" fill="#DCD9FF" stroke="#1E1F29" stroke-width="5.8" />
      <path d="M 105 100 L 105 145 L 140 145" fill="none" stroke="#1E1F29" stroke-width="8.7" stroke-linecap="round" stroke-linejoin="round" />

      <rect x="205" y="65" width="120" height="120" rx="24" fill="#BAE6FD" stroke="#1E1F29" stroke-width="5.8" />
      <path d="M 280 100 A 24 24 0 0 0 250 125 A 24 24 0 0 0 280 150" fill="none" stroke="#1E1F29" stroke-width="8.7" stroke-linecap="round" />

      <rect x="65" y="205" width="120" height="120" rx="24" fill="#A7F3D0" stroke="#1E1F29" stroke-width="5.8" />
      <path d="M 95 285 L 107 240 L 125 268 L 143 240 L 155 285" fill="none" stroke="#1E1F29" stroke-width="8.12" stroke-linecap="round" stroke-linejoin="round" />

      <rect x="205" y="205" width="120" height="120" rx="24" fill="#FDE68A" stroke="#1E1F29" stroke-width="5.8" />
      <path d="M 245 240 L 245 285 L 280 285" fill="none" stroke="#1E1F29" stroke-width="8.7" stroke-linecap="round" stroke-linejoin="round" />
    </g>
  </g>
</svg>
